<?xml version="1.0" encoding="UTF-8" standalone="no"?>
<svg
   xmlns:dc="http://purl.org/dc/elements/1.1/"
   xmlns:cc="http://creativecommons.org/ns#"
   xmlns:rdf="http://www.w3.org/1999/02/22-rdf-syntax-ns#"
   xmlns:svg="http://www.w3.org/2000/svg"
   xmlns="http://www.w3.org/2000/svg"
   viewBox="0 0 1088 114.66667"
   height="114.66667"
   width="1088"
   xml:space="preserve"
   id="svg2"
   version="1.1"><metadata
     id="metadata8"><rdf:RDF><cc:Work
         rdf:about=""><dc:format>image/svg+xml</dc:format><dc:type
           rdf:resource="http://purl.org/dc/dcmitype/StillImage" /></cc:Work></rdf:RDF></metadata><defs
     id="defs6"><clipPath
       id="clipPath20"
       clipPathUnits="userSpaceOnUse"><path
         id="path18"
         d="M 0,0.08000192 H 815.76 V 86.000002 H 0 Z" /></clipPath></defs><g
     transform="matrix(1.3333333,0,0,-1.3333333,0,114.66667)"
     id="g10"><g
       id="g12" /><g
       id="g14"><g
         clip-path="url(#clipPath20)"
         id="g16"><path
           id="path22"
           style="fill:#ffffff;fill-opacity:1;fill-rule:nonzero;stroke:none"
           d="M 0,86 H 815.76 V 0.08000192 H 0 Z" /></g></g><g
       id="g24"><path
         id="path26"
         style="fill:#ffffff;fill-opacity:1;fill-rule:nonzero;stroke:none"
         d="M 0,86 H 815.75 V -0.3750371 H 0 Z" /><path
         id="path28"
         style="fill:#7c7c7c;fill-opacity:1;fill-rule:nonzero;stroke:none"
         d="m 4.235433,50.60146 788.625067,-8e-5 v -2.25 l -788.625067,8e-5 z m 787.499967,2.24992 6.75,-3.375 -6.75,-3.375 z" /><g
         transform="matrix(0.24,0,0,0.24,29.35642,-60.88)"
         id="g30"><text
           id="text34"
           style="font-variant:normal;font-weight:300;font-size:66.66665649px;font-family:Helvetica;-inkscape-font-specification:Helvetica-Light;writing-mode:lr-tb;fill:#000000;fill-opacity:1;fill-rule:nonzero;stroke:none"
           transform="matrix(1,0,0,-1,0,358)"><tspan
             id="tspan32"
             y="0"
             x="0 59.373329 96.346657 118.71999">Warm</tspan></text>
</g><g
         transform="matrix(0.24,0,0,0.24,71.23142,-60.88)"
         id="g36"><text
           id="text40"
           style="font-variant:normal;font-weight:300;font-size:66.66665649px;font-family:Helvetica;-inkscape-font-specification:Helvetica-Light;writing-mode:lr-tb;fill:#000000;fill-opacity:1;fill-rule:nonzero;stroke:none"
           transform="matrix(1,0,0,-1,0,358)"><tspan
             id="tspan38"
             y="0"
             x="0">-</tspan></text>
</g><g
         transform="matrix(0.24,0,0,0.24,76.60641,-60.88)"
         id="g42"><text
           id="text46"
           style="font-variant:normal;font-weight:300;font-size:66.66665649px;font-family:Helvetica;-inkscape-font-specification:Helvetica-Light;writing-mode:lr-tb;fill:#000000;fill-opacity:1;fill-rule:nonzero;stroke:none"
           transform="matrix(1,0,0,-1,0,358)"><tspan
             id="tspan44"
             y="0"
             x="0 36.979996">up</tspan></text>
</g><g
         transform="matrix(0.24,0,0,0.24,205.9844,-60.88)"
         id="g48"><text
           id="text52"
           style="font-variant:normal;font-weight:300;font-size:66.66665649px;font-family:Helvetica;-inkscape-font-specification:Helvetica-Light;writing-mode:lr-tb;fill:#000000;fill-opacity:1;fill-rule:nonzero;stroke:none"
           transform="matrix(1,0,0,-1,0,358)"><tspan
             id="tspan50"
             y="0"
             x="0 44.273331 81.279991 118.28665 155.29332 195.89998 214.63998">Round 1</tspan></text>
</g><g
         transform="matrix(0.24,0,0,0.24,396.9905,-61.12)"
         id="g54"><text
           id="text58"
           style="font-variant:normal;font-weight:300;font-size:66.66665649px;font-family:Helvetica;-inkscape-font-specification:Helvetica-Light;writing-mode:lr-tb;fill:#000000;fill-opacity:1;fill-rule:nonzero;stroke:none"
           transform="matrix(1,0,0,-1,0,358)"><tspan
             id="tspan56"
             y="0"
             x="0 44.273331 81.279991 118.28665 155.29332 195.89998 214.63998">Round 2</tspan></text>
</g><g
         transform="matrix(0.24,0,0,0.24,587.9966,-61.12)"
         id="g60"><text
           id="text64"
           style="font-variant:normal;font-weight:300;font-size:66.66665649px;font-family:Helvetica;-inkscape-font-specification:Helvetica-Light;writing-mode:lr-tb;fill:#000000;fill-opacity:1;fill-rule:nonzero;stroke:none"
           transform="matrix(1,0,0,-1,0,358)"><tspan
             id="tspan62"
             y="0"
             x="0 44.273331 81.279991 118.28665 155.29332 195.89998 214.63998">Round 3</tspan></text>
</g><g
         transform="matrix(0.24,0,0,0.24,767.6083,-61.6)"
         id="g66"><text
           id="text70"
           style="font-variant:normal;font-weight:300;font-size:83.33332825px;font-family:Helvetica;-inkscape-font-specification:Helvetica-Light;writing-mode:lr-tb;fill:#525252;fill-opacity:1;fill-rule:nonzero;stroke:none"
           transform="matrix(1,0,0,-1,0,358)"><tspan
             id="tspan68"
             y="0"
             x="0 46.35833 65.133331 134.40833">Time</tspan></text>
</g><path
         id="path72"
         style="fill:#7c7c7c;fill-opacity:1;fill-rule:evenodd;stroke:none"
         d="m 229.9622,50.00937 c 0,2.84031 2.3025,5.14283 5.1429,5.14283 2.8403,0 5.1428,-2.30252 5.1428,-5.14283 0,-2.84031 -2.3025,-5.14284 -5.1428,-5.14284 -2.8404,0 -5.1429,2.30253 -5.1429,5.14284 z" /><g
         transform="matrix(7.874016e-5,0,0,-7.874016e-5,229.9622,55.1522)"
         id="g74"><path
           id="path76"
           style="fill:none;stroke:#dbdbdb;stroke-width:12700;stroke-linecap:butt;stroke-linejoin:miter;stroke-miterlimit:8;stroke-dasharray:none;stroke-opacity:1"
           d="M 0,65314 C 0,29242.07 29242.3,0 65314.5,0 101386.7,0 130629,29242.07 130629,65314 c 0,36071.9 -29242.3,65314 -65314.5,65314 C 29242.3,130628 0,101385.9 0,65314 Z" /></g><path
         id="path78"
         style="fill:#7c7c7c;fill-opacity:1;fill-rule:evenodd;stroke:none"
         d="m 419.7291,50.00937 c 0,2.84031 2.3026,5.14283 5.1429,5.14283 2.8403,0 5.1429,-2.30252 5.1429,-5.14283 0,-2.84031 -2.3026,-5.14284 -5.1429,-5.14284 -2.8403,0 -5.1429,2.30253 -5.1429,5.14284 z" /><g
         transform="matrix(7.874016e-5,0,0,-7.874016e-5,419.7291,55.1522)"
         id="g80"><path
           id="path82"
           style="fill:none;stroke:#dbdbdb;stroke-width:12700;stroke-linecap:butt;stroke-linejoin:miter;stroke-miterlimit:8;stroke-dasharray:none;stroke-opacity:1"
           d="M 0,65314 C 0,29242.07 29242.3,0 65314.5,0 101386.7,0 130629,29242.07 130629,65314 c 0,36071.9 -29242.3,65314 -65314.5,65314 C 29242.3,130628 0,101385.9 0,65314 Z" /></g><path
         id="path84"
         style="fill:#7c7c7c;fill-opacity:1;fill-rule:evenodd;stroke:none"
         d="m 613.4297,50.11929 c 0,2.84031 2.3025,5.14284 5.1428,5.14284 2.8404,0 5.1429,-2.30253 5.1429,-5.14284 0,-2.84031 -2.3025,-5.14283 -5.1429,-5.14283 -2.8403,0 -5.1428,2.30252 -5.1428,5.14283 z" /><g
         transform="matrix(7.874016e-5,0,0,-7.874016e-5,613.4297,55.26213)"
         id="g86"><path
           id="path88"
           style="fill:none;stroke:#dbdbdb;stroke-width:12700;stroke-linecap:butt;stroke-linejoin:miter;stroke-miterlimit:8;stroke-dasharray:none;stroke-opacity:1"
           d="M 0,65314 C 0,29242.07 29242.3,0 65314.5,0 101386.7,0 130629,29242.07 130629,65314 c 0,36071.9 -29242.3,65314 -65314.5,65314 C 29242.3,130628 0,101385.9 0,65314 Z" /></g></g></g></svg>